<?xml version="1.0" encoding="UTF-8"?>
<svg id="Layer_2" data-name="Layer 2" xmlns="http://www.w3.org/2000/svg" viewBox="0 0 567.53 168.34">
  <defs>
    <style>
      .cls-1 {
        fill: #0d0d0d;
      }
    </style>
  </defs>
  <g id="Layer_1-2" data-name="Layer 1">
    <g>
      <g>
        <rect class="cls-1" x="81.79" width="21.12" height="168.34"/>
        <path class="cls-1" d="M195.22,30.26l-53.91,53.92,53.91,53.91v29.61l-.13.13-71.84-71.84c-6.52-6.52-6.52-17.09,0-23.6L195.09.53l.13.13v29.6Z"/>
        <path class="cls-1" d="M66.33,127.29l-43.38-43.38,43.38-43.39V10.66L4.88,72.11c-6.51,6.52-6.51,17.09,0,23.6l61.45,61.45v-29.87Z"/>
      </g>
      <g>
        <path class="cls-1" d="M272,122.29V30.9h14.47v49.56l-3.8-1.47,41.34-48.09h18.03l-36.56,42.81.74-10.3,37.29,58.88h-17.05l-26.74-41.83-13.25,15.46v26.38h-14.47Z"/>
        <path class="cls-1" d="M382.53,123.76c-6.38,0-12.21-1.51-17.48-4.54-5.28-3.02-9.47-7.16-12.57-12.39-3.11-5.23-4.66-11.16-4.66-17.79s1.55-12.65,4.66-17.85c3.11-5.19,7.28-9.28,12.51-12.27,5.23-2.98,11.08-4.48,17.54-4.48s12.41,1.49,17.6,4.48c5.19,2.99,9.32,7.07,12.39,12.27,3.07,5.19,4.6,11.14,4.6,17.85s-1.55,12.68-4.66,17.91c-3.11,5.23-7.28,9.34-12.51,12.33-5.23,2.99-11.04,4.48-17.42,4.48ZM382.53,110.88c3.93,0,7.4-.94,10.43-2.82,3.02-1.88,5.42-4.48,7.18-7.79,1.76-3.31,2.64-7.05,2.64-11.22s-.88-7.89-2.64-11.16c-1.76-3.27-4.15-5.85-7.18-7.73-3.03-1.88-6.5-2.82-10.43-2.82s-7.3.94-10.37,2.82c-3.07,1.88-5.48,4.46-7.24,7.73-1.76,3.27-2.64,6.99-2.64,11.16s.88,7.91,2.64,11.22c1.76,3.31,4.17,5.91,7.24,7.79,3.07,1.88,6.52,2.82,10.37,2.82Z"/>
        <path class="cls-1" d="M461.29,123.76c-6.38,0-12.08-1.53-17.11-4.6-5.03-3.07-9-7.22-11.9-12.45-2.9-5.23-4.35-11.12-4.35-17.67s1.47-12.43,4.42-17.67c2.94-5.23,6.91-9.36,11.9-12.39,4.99-3.02,10.63-4.54,16.93-4.54,5.31,0,10.02,1.06,14.11,3.19,4.09,2.13,7.32,5.07,9.69,8.83l-2.09,3.19V29.43h13.74v92.86h-13.13v-13.49l1.6,2.58c-2.29,4.01-5.56,7.07-9.81,9.2-4.25,2.13-8.92,3.19-13.98,3.19ZM462.64,110.88c3.84,0,7.3-.94,10.37-2.82,3.07-1.88,5.48-4.48,7.24-7.79,1.76-3.31,2.64-7.05,2.64-11.22s-.88-7.89-2.64-11.16c-1.76-3.27-4.17-5.85-7.24-7.73-3.07-1.88-6.52-2.82-10.37-2.82s-7.32.94-10.43,2.82c-3.11,1.88-5.52,4.46-7.24,7.73-1.72,3.27-2.58,6.99-2.58,11.16s.86,7.91,2.58,11.22c1.72,3.31,4.11,5.91,7.18,7.79,3.07,1.88,6.56,2.82,10.49,2.82Z"/>
        <path class="cls-1" d="M532.69,123.76c-4.5,0-8.45-.8-11.84-2.39-3.39-1.59-6.03-3.8-7.91-6.62-1.88-2.82-2.82-6.15-2.82-10,0-3.6.8-6.83,2.39-9.69,1.59-2.86,4.07-5.27,7.42-7.24,3.35-1.96,7.56-3.35,12.64-4.17l23.06-3.8v10.92l-20.36,3.56c-3.68.66-6.38,1.82-8.1,3.5-1.72,1.68-2.58,3.82-2.58,6.44s.96,4.6,2.88,6.2c1.92,1.59,4.4,2.39,7.42,2.39,3.76,0,7.05-.82,9.88-2.45,2.82-1.64,5.01-3.82,6.56-6.56,1.55-2.74,2.33-5.79,2.33-9.14v-17.05c0-3.27-1.21-5.95-3.62-8.04-2.41-2.09-5.62-3.13-9.63-3.13-3.68,0-6.89.96-9.63,2.88-2.74,1.92-4.76,4.4-6.07,7.42l-11.53-5.77c1.23-3.27,3.23-6.15,6.01-8.65,2.78-2.49,6.03-4.44,9.75-5.83,3.72-1.39,7.67-2.09,11.84-2.09,5.23,0,9.88.98,13.92,2.94,4.05,1.96,7.2,4.68,9.45,8.16,2.25,3.48,3.37,7.5,3.37,12.08v44.65h-13.25v-12.02l2.82.37c-1.55,2.7-3.54,5.03-5.95,6.99-2.41,1.96-5.15,3.48-8.22,4.54-3.07,1.06-6.48,1.59-10.24,1.59Z"/>
      </g>
    </g>
  </g>
</svg>